<?xml version="1.0" encoding="UTF-8" standalone="no"?>
<!-- Created with Inkscape (http://www.inkscape.org/) -->

<svg
   version="1.1"
   id="svg2"
   width="5120"
   height="2880"
   viewBox="0 0 5120 2880"
   sodipodi:docname="1.svg"
   inkscape:version="1.2.1 (9c6d41e410, 2022-07-14)"
   xmlns:inkscape="http://www.inkscape.org/namespaces/inkscape"
   xmlns:sodipodi="http://sodipodi.sourceforge.net/DTD/sodipodi-0.dtd"
   xmlns="http://www.w3.org/2000/svg"
   xmlns:svg="http://www.w3.org/2000/svg">
  <defs
     id="defs6">
    <clipPath
       clipPathUnits="userSpaceOnUse"
       id="clipPath20">
      <path
         d="M 0,2160 H 3840 V 0 H 0 Z"
         id="path18" />
    </clipPath>
    <clipPath
       clipPathUnits="userSpaceOnUse"
       id="clipPath30">
      <path
         d="M 0,2160 H 3840 V 0 H 0 Z"
         id="path28" />
    </clipPath>
    <clipPath
       clipPathUnits="userSpaceOnUse"
       id="clipPath46">
      <path
         d="M 1298.3,1701.85 H 2542.31 V 457.844 H 1298.3 Z"
         id="path44" />
    </clipPath>
    <clipPath
       clipPathUnits="userSpaceOnUse"
       id="clipPath86">
      <path
         d="M 676.494,2323.66 H 3164.51 V -164.353 H 676.494 Z"
         id="path84" />
    </clipPath>
    <clipPath
       clipPathUnits="userSpaceOnUse"
       id="clipPath106">
      <path
         d="M -567.512,3567.66 H 4408.51 V -1408.36 H -567.512 Z"
         id="path104" />
    </clipPath>
  </defs>
  <sodipodi:namedview
     id="namedview4"
     pagecolor="#505050"
     bordercolor="#eeeeee"
     borderopacity="1"
     inkscape:showpageshadow="0"
     inkscape:pageopacity="0"
     inkscape:pagecheckerboard="0"
     inkscape:deskcolor="#505050"
     showgrid="false"
     inkscape:zoom="0.087146682"
     inkscape:cx="2799.8771"
     inkscape:cy="1876.1472"
     inkscape:window-width="900"
     inkscape:window-height="1026"
     inkscape:window-x="1004"
     inkscape:window-y="38"
     inkscape:window-maximized="1"
     inkscape:current-layer="g10">
    <inkscape:page
       x="0"
       y="0"
       id="page8"
       width="5120"
       height="2880" />
  </sodipodi:namedview>
  <g
     id="g10"
     inkscape:groupmode="layer"
     inkscape:label="Page 1"
     transform="matrix(1.3333333,0,0,-1.3333333,0,2880)"
     style="display:inline">
    <path
       d="M 0,0 H 3840 V 2160 H 0 Z"
       style="fill:#263238;fill-opacity:1;fill-rule:nonzero;stroke:none"
       id="path12"
       inkscape:label="background" />
    <g
       id="g26"
       clip-path="url(#clipPath30)"
       style="display:inline"
       inkscape:label="rings">
      <g
         clip-path="url(#clipPath106)"
         opacity="0.0599976"
         id="g116"
         style="display:inline">
        <path
           d="m 0,0 -565.118,565.118 c -266.627,-163.099 -573.005,-249.658 -885.561,-250.189 -940.318,-0.002 -1702.596,762.276 -1702.594,1702.594 0.752,312.444 87.466,618.657 250.646,885.104 l -566.19,566.19 c -304.723,-422.631 -469.075,-930.263 -469.873,-1451.294 0,-1374.09 1113.92,-2488.011 2488.011,-2488.011 C -929.791,-469.382 -422.387,-304.82 0,0"
           style="display:inline;fill:#478061;fill-opacity:1;fill-rule:nonzero;stroke:none"
           id="path112"
           transform="translate(3371.1787,-937.87007)" />
        <path
           d="m 0,0 c -520.888,-1.106 -1028.292,-165.669 -1450.679,-470.489 l 565.118,-565.118 c 266.627,163.1 573.005,249.658 885.561,250.19 940.317,10e-4 1702.596,-762.277 1702.594,-1702.595 -0.752,-312.444 -87.467,-618.656 -250.646,-885.105 l 566.19,-566.188 c 304.722,422.631 469.075,930.263 469.874,1451.293 C 2488.012,-1113.921 1374.091,0 0,0"
           style="display:inline;fill:#abc2ab;fill-opacity:1;fill-rule:nonzero;stroke:none"
           id="path108"
           transform="translate(1920.5,3567.6646)" />
      </g>
      <g
         clip-path="url(#clipPath46)"
         opacity="0.25"
         id="g56"
         style="display:inline">
        <path
           d="m 0,0 -141.28,141.279 c -66.657,-40.775 -143.251,-62.415 -221.39,-62.548 -235.08,0 -425.649,190.57 -425.648,425.649 0.188,78.112 21.866,154.664 62.661,221.277 l -141.548,141.547 c -76.18,-105.658 -117.268,-232.566 -117.468,-362.824 0,-343.523 278.48,-622.002 622.003,-622.002 C -232.448,-117.346 -105.597,-76.205 0,0"
           style="display:inline;fill:#478061;fill-opacity:1;fill-rule:nonzero;stroke:none"
           id="path52"
           transform="translate(2282.9756,575.46676)" />
        <path
           d="m 0,0 c -130.222,-0.276 -257.073,-41.417 -362.67,-117.622 l 141.28,-141.28 c 66.657,40.775 143.251,62.415 221.39,62.548 235.079,0 425.648,-190.569 425.648,-425.649 -0.188,-78.111 -21.867,-154.664 -62.661,-221.276 l 141.547,-141.548 c 76.181,105.659 117.27,232.567 117.469,362.824 C 622.003,-278.48 343.522,0 0,0"
           style="display:inline;fill:#abc2ab;fill-opacity:1;fill-rule:nonzero;stroke:none"
           id="path48"
           transform="translate(1920.3057,1701.8501)" />
      </g>
      <g
         clip-path="url(#clipPath86)"
         opacity="0.0599976"
         id="g96"
         style="display:inline">
        <path
           d="m 0,0 c -260.444,-0.553 -514.146,-82.834 -725.339,-235.245 l 282.559,-282.559 c 133.313,81.55 286.502,124.829 442.78,125.095 470.159,10e-4 851.298,-381.138 851.297,-851.297 -0.376,-156.222 -43.734,-309.328 -125.323,-442.552 l 283.095,-283.095 c 152.362,211.316 234.537,465.132 234.937,725.647 C 1244.006,-556.96 687.045,0 0,0"
           style="display:inline;fill:#abc2ab;fill-opacity:1;fill-rule:nonzero;stroke:none"
           id="path88"
           transform="translate(1920.5,2323.6587)" />
        <path
           d="m 0,0 -282.56,282.559 c -133.313,-81.55 -286.502,-124.83 -442.78,-125.095 -470.159,-0.001 -851.298,381.139 -851.297,851.297 0.376,156.222 43.733,309.329 125.323,442.552 l -283.095,283.095 c -152.362,-211.315 -234.537,-465.132 -234.937,-725.647 0,-687.045 556.961,-1244.006 1244.006,-1244.006 C -464.896,-234.691 -211.193,-152.41 0,0"
           style="display:inline;fill:#478061;fill-opacity:1;fill-rule:nonzero;stroke:none"
           id="path92"
           transform="translate(2645.8398,70.891577)" />
      </g>
    </g>
    <g
       inkscape:groupmode="layer"
       id="layer1"
       inkscape:label="void-logo">
      <path
         d="m 0,0 -70.64,70.64 c -33.329,-20.388 -71.626,-31.208 -110.695,-31.275 -117.54,0 -212.825,95.285 -212.825,212.825 0.095,39.056 10.934,77.332 31.331,110.638 l -70.774,70.774 c -38.09,-52.829 -58.634,-116.283 -58.733,-181.412 0,-171.761 139.239,-311.002 311.001,-311.002 C -116.225,-58.673 -52.799,-38.103 0,0"
         style="display:inline;fill:#478061;fill-opacity:1;fill-rule:nonzero;stroke:none"
         id="path38"
         transform="translate(2101.9346,827.46287)" />
      <path
         d="m 0,0 c -65.111,-0.138 -128.537,-20.708 -181.335,-58.811 l 70.64,-70.64 c 33.328,20.388 71.625,31.207 110.695,31.274 117.539,0 212.824,-95.285 212.824,-212.824 -0.095,-39.056 -10.933,-77.333 -31.331,-110.639 l 70.774,-70.773 c 38.09,52.829 58.634,116.283 58.734,181.412 C 311.001,-139.24 171.761,0 0,0"
         style="display:inline;fill:#abc2ab;fill-opacity:1;fill-rule:nonzero;stroke:none"
         id="path34"
         transform="translate(1920.5996,1390.6543)" />
      <path
         d="m 0,0 c 54.683,0 99.013,-44.33 99.013,-99.013 0,-54.683 -44.33,-99.013 -99.013,-99.013 -54.683,0 -99.013,44.33 -99.013,99.013 C -99.013,-44.33 -54.683,0 0,0"
         style="display:inline;fill:#abc2ab;fill-opacity:1;fill-rule:nonzero;stroke:none"
         id="path62"
         transform="translate(1920.5498,1178.6655)" />
      <path
         d="m 0,0 c -3.391,-2.422 -6.48,-3.633 -9.266,-3.633 h -11.991 c -1.695,0 -3.028,0.303 -3.996,0.908 -0.97,0.606 -1.757,1.514 -2.363,2.725 l -61.408,114.097 c -0.242,0.242 -0.363,0.545 -0.363,0.908 v 1.09 c 0,1.212 0.424,2.18 1.271,2.907 0.97,0.848 2.483,1.272 4.542,1.272 h 74.672 c 3.997,0 6.601,-1.211 7.812,-3.634 L 36.7,43.786 142.621,116.64 c 3.512,2.423 7.206,3.634 11.082,3.634 h 11.809 c 1.575,0 2.363,-0.666 2.363,-1.999 0,-1.089 -0.97,-2.422 -2.908,-3.997 z"
         style="display:inline;fill:#000000;fill-opacity:1;fill-rule:nonzero;stroke:none"
         id="path66"
         transform="translate(1632.6787,1021.8008)" />
      <path
         d="m 0,0 c 3.997,8.479 5.996,14.837 5.996,19.077 0,3.512 -1.272,5.935 -3.816,7.267 -2.422,1.332 -6.056,1.998 -10.901,1.998 H -33.43 c -3.512,0 -6.782,-0.484 -9.81,-1.453 -2.907,-0.848 -5.633,-2.362 -8.176,-4.542 -2.543,-2.18 -5.027,-5.087 -7.449,-8.721 C -61.167,9.992 -63.528,5.45 -65.951,0 l -8.72,-19.804 c -4.603,-10.295 -6.904,-18.047 -6.904,-23.255 0,-3.512 1.029,-6.056 3.088,-7.63 2.059,-1.454 5.027,-2.18 8.903,-2.18 h 24.89 c 3.755,0 7.207,0.545 10.356,1.635 3.149,1.211 6.177,3.088 9.084,5.631 2.907,2.544 5.693,5.936 8.358,10.175 2.664,4.24 5.389,9.448 8.175,15.624 z m -109.373,-74.308 c -6.298,0 -11.87,0.969 -16.714,2.907 -4.845,2.059 -8.903,4.844 -12.173,8.357 -3.27,3.513 -5.753,7.631 -7.449,12.355 -1.696,4.844 -2.543,10.052 -2.543,15.625 0,7.145 1.21,14.17 3.633,21.075 2.422,6.904 5.753,13.505 9.993,19.803 4.36,6.298 9.447,12.112 15.261,17.441 5.935,5.329 12.354,9.932 19.258,13.808 7.025,3.876 14.414,6.904 22.165,9.084 7.752,2.301 15.686,3.452 23.801,3.452 h 89.024 c 6.419,0 12.052,-0.969 16.896,-2.907 4.966,-1.938 9.084,-4.663 12.355,-8.175 3.27,-3.392 5.753,-7.45 7.449,-12.173 1.695,-4.724 2.543,-9.871 2.543,-15.443 0,-7.146 -1.272,-14.232 -3.815,-21.257 -2.422,-6.904 -5.814,-13.505 -10.174,-19.803 -4.361,-6.299 -9.508,-12.173 -15.444,-17.623 -5.934,-5.329 -12.415,-9.993 -19.439,-13.989 -7.025,-3.876 -14.414,-6.965 -22.166,-9.267 -7.751,-2.18 -15.564,-3.27 -23.437,-3.27 z"
         style="display:inline;fill:#000000;fill-opacity:1;fill-rule:nonzero;stroke:none"
         id="path70"
         transform="translate(1906.8428,1092.4756)" />
      <path
         d="m 0,0 c -2.181,0 -3.271,0.727 -3.271,2.18 0,0.726 0.182,1.634 0.545,2.725 l 51.053,114.278 c 1.454,3.149 3.755,4.724 6.904,4.724 h 62.498 c 2.302,0 3.453,-0.787 3.453,-2.362 0,-0.727 -0.243,-1.514 -0.727,-2.362 L 69.584,4.905 C 68.131,1.635 65.829,0 62.68,0 Z"
         style="display:inline;fill:#000000;fill-opacity:1;fill-rule:nonzero;stroke:none"
         id="path74"
         transform="translate(1968.1973,1018.168)" />
      <path
         d="m 0,0 c 3.875,8.721 5.813,15.08 5.813,19.077 0,3.512 -1.21,5.935 -3.633,7.267 -2.422,1.332 -5.935,1.998 -10.537,1.998 h -36.882 l -35.973,-81.211 h 36.699 c 3.634,0 7.026,0.545 10.175,1.635 3.149,1.211 6.116,3.088 8.902,5.631 2.907,2.665 5.693,6.057 8.358,10.175 2.785,4.24 5.571,9.448 8.357,15.624 z m -158.063,-74.308 c -2.181,0 -3.271,0.727 -3.271,2.18 0,0.727 0.182,1.635 0.545,2.726 l 51.053,114.277 c 1.453,3.149 3.755,4.724 6.904,4.724 H 43.24 c 6.298,0 11.869,-0.969 16.715,-2.907 4.845,-1.938 8.902,-4.663 12.172,-8.175 3.27,-3.392 5.754,-7.45 7.449,-12.173 1.696,-4.724 2.544,-9.871 2.544,-15.443 0,-7.388 -1.272,-14.656 -3.815,-21.802 -2.544,-7.025 -6.057,-13.687 -10.538,-19.985 -4.361,-6.299 -9.569,-12.112 -15.624,-17.441 -5.936,-5.33 -12.415,-9.933 -19.441,-13.809 -6.903,-3.754 -14.171,-6.721 -21.802,-8.902 -7.63,-2.18 -15.26,-3.27 -22.891,-3.27 z"
         style="display:inline;fill:#000000;fill-opacity:1;fill-rule:nonzero;stroke:none"
         id="path78"
         transform="translate(2215.5889,1092.4756)" />
    </g>
  </g>
</svg>
