<?xml version="1.0" encoding="utf-8"?>
<!-- Generator: Adobe Illustrator 22.0.1, SVG Export Plug-In . SVG Version: 6.00 Build 0)  -->
<svg version="1.1" id="Layer_1" xmlns="http://www.w3.org/2000/svg" xmlns:xlink="http://www.w3.org/1999/xlink" x="0px" y="0px"
	 viewBox="0 0 65 65" style="enable-background:new 0 0 65 65;" xml:space="preserve">
<style type="text/css">
	.st0{fill:#1793D1;}
	.st1{fill:#FFFFFF;fill-opacity:0.1657;}
	.st2{fill:url(#SVGID_1_);}
</style>
<g>
	<path class="st0" d="M32.3,0.2c-2.8,7-4.6,11.6-7.8,18.3c1.9,2.1,4.3,4.5,8.2,7.2c-4.2-1.7-7-3.4-9.1-5.2C19.5,29,13.2,41,0.3,64.2
		c10.1-5.9,18-9.5,25.3-10.8c-0.3-1.4-0.5-2.8-0.5-4.3l0-0.3c0.2-6.5,3.5-11.5,7.5-11.2c4,0.3,7.1,5.9,7,12.4c0,1.2-0.2,2.4-0.4,3.5
		c7.2,1.4,15,5,25,10.8c-2-3.6-3.7-6.9-5.4-10c-2.6-2.1-5.4-4.7-11-7.6c3.9,1,6.7,2.2,8.8,3.5C39.5,18.2,38.1,14,32.3,0.2L32.3,0.2
		L32.3,0.2z"/>
	<path id="path2522" class="st1" d="M50.3,38.2C36.4,19.4,33.2,4.2,32.4,0.6C39.8,17.7,39.7,17.9,50.3,38.2z"/>
	
		<linearGradient id="SVGID_1_" gradientUnits="userSpaceOnUse" x1="-1952.8177" y1="1548.3051" x2="-1953.0828" y2="1547.7791" gradientTransform="matrix(32.813 0 0 -37.7811 64117.6641 58511.6289)">
		<stop  offset="0" style="stop-color:#FFFFFF;stop-opacity:0"/>
		<stop  offset="1" style="stop-color:#FFFFFF;stop-opacity:0.2745"/>
	</linearGradient>
	<path class="st2" d="M32.4,0.5c-0.4,0.9-0.7,1.7-1,2.6c-0.4,0.9-0.7,1.8-1.1,2.6s-0.7,1.6-1,2.4c-0.3,0.8-0.7,1.6-1,2.4
		c-0.3,0.8-0.7,1.6-1.1,2.4c-0.4,0.8-0.8,1.7-1.2,2.5c-0.4,0.9-0.8,1.8-1.3,2.8c-0.1,0.1-0.1,0.3-0.2,0.4c1.9,2.1,4.3,4.4,8.2,7.1
		c-4.2-1.7-7-3.4-9.1-5.2c-0.1,0.2-0.2,0.4-0.3,0.7c-0.4,0.9-0.9,1.7-1.3,2.7c-0.1,0.2-0.2,0.4-0.3,0.7c-0.5,1-1,2-1.6,3.2
		c-0.1,0.2-0.2,0.4-0.3,0.6c-0.3,0.7-1.4,2.8-2.6,4.9c-0.7,1.2-1.2,2.3-1.9,3.7c-0.2,0.4-0.6,1.2-0.8,1.4
		c8.1-4.6,16.9-11.2,32.8-5.5c-0.8-1.5-1.6-2.9-2.3-4.3c-0.7-1.3-1.3-2.6-1.9-3.8s-1.1-2.3-1.7-3.3c-0.5-1.1-1-2-1.4-3
		s-0.9-1.9-1.3-2.8c-0.4-0.9-0.8-1.7-1.1-2.6c-0.4-0.8-0.7-1.7-1-2.5c-0.3-0.8-0.7-1.6-1-2.4c-0.1-0.4-0.3-0.7-0.4-1.1
		C34.3,5,33.4,2.9,32.4,0.5L32.4,0.5L32.4,0.5z"/>
</g>
</svg>
